<svg data-v-fde0c5aa="" xmlns="http://www.w3.org/2000/svg" viewBox="0 0 80 50" border="1px solid black">
<!--  -->
<g data-v-fde0c5aa="" id="28d4870f-927f-4ebc-b0cd-09f4c61bec6c" stroke="none" fill="#EBC416" transform="matrix(0.47232726216316223,0,0,0.47232726216316223,36.55902220086762,0)">
    <path d="M8.534 46.081c-.69 0-1.25-.56-1.25-1.25V32.765a1.25 1.25 0 0 1 2.5 0v12.066c0 .69-.56 1.25-1.25 1.25zM12.702 86.225c-.69 0-1.25-.56-1.25-1.25V49.479a1.25 1.25 0 0 1 2.5 0v35.495a1.25 1.25 0 0 1-1.25 1.251z">
    </path>
    <path d="M12.687 50.358c-2.942 0-5.336-2.449-5.336-5.46a1.25 1.25 0 0 1 2.5 0c0 1.632 1.272 2.96 2.836 2.96a1.25 1.25 0 0 1 0 2.5zM12.459 46.081c-.69 0-1.25-.56-1.25-1.25V32.765a1.25 1.25 0 0 1 2.5 0v12.066c0 .69-.56 1.25-1.25 1.25zM16.358 46.081c-.69 0-1.25-.56-1.25-1.25V32.765a1.25 1.25 0 0 1 2.5 0v12.066c0 .69-.56 1.25-1.25 1.25zM91.164 86.49c-.69 0-1.25-.56-1.25-1.25 0-.425.003-35.414.001-47.628-1.841 4.31-4.183 11.774-4.183 13.62 0 2.496 1.853 2.766 2.649 2.766a1.25 1.25 0 0 1 0 2.5c-3.08 0-5.149-2.116-5.149-5.266 0-1.606 4.413-19.029 7.932-19.029.081 0 .162.008.241.023 1.009.198 1.009.32 1.01 3.452v5.866l-.001 43.696c0 .691-.56 1.25-1.25 1.25z">
    </path>
    <g>
        <path d="M49.69 92.77c-17.364 0-31.49-14.127-31.49-31.49s14.126-31.49 31.49-31.49 31.49 14.127 31.49 31.49-14.126 31.49-31.49 31.49zm0-60.104c-15.778 0-28.614 12.836-28.614 28.613S33.912 89.893 49.69 89.893 78.304 77.057 78.304 61.28 65.468 32.666 49.69 32.666z">
        </path>
    </g>
    <g>
        <path d="M49.69 83.443c-12.221 0-22.164-9.943-22.164-22.164s9.942-22.164 22.164-22.164 22.164 9.943 22.164 22.164-9.943 22.164-22.164 22.164zm0-41.451c-10.635 0-19.288 8.652-19.288 19.287s8.652 19.287 19.288 19.287 19.288-8.652 19.288-19.287-8.653-19.287-19.288-19.287z">
        </path>
    </g>
</g>
</svg>