<?xml version="1.0" standalone="no"?>
<!DOCTYPE svg PUBLIC "-//W3C//DTD SVG 20010904//EN"
 "http://www.w3.org/TR/2001/REC-SVG-20010904/DTD/svg10.dtd">
<svg version="1.0" xmlns="http://www.w3.org/2000/svg"
 width="1280.000000pt" height="1280.000000pt" viewBox="0 0 1280.000000 1280.000000"
 preserveAspectRatio="xMidYMid meet">
<metadata>
Created by potrace 1.11, written by Peter Selinger 2001-2013
</metadata>
<g transform="translate(0.000000,1280.000000) scale(0.100000,-0.100000)"
fill="#000000" stroke="none">
<path d="M9428 8144 c-3 -2 -31 -6 -64 -9 -204 -17 -427 -71 -634 -153 -81
-32 -272 -122 -280 -131 -3 -3 -25 -17 -50 -30 -72 -39 -242 -158 -305 -213
-11 -9 -42 -37 -69 -60 -107 -93 -273 -274 -336 -368 -13 -19 -27 -37 -31 -40
-11 -9 -109 -169 -109 -179 0 -5 -4 -11 -9 -13 -10 -3 -132 -246 -145 -288 -5
-14 -10 -29 -12 -35 -59 -168 -95 -286 -108 -360 -13 -66 -34 -201 -35 -215 0
-8 -3 -37 -6 -65 -14 -114 -9 -377 10 -530 8 -60 45 -258 52 -275 3 -8 8 -24
10 -35 4 -23 69 -215 88 -260 40 -97 122 -263 158 -320 6 -11 30 -49 53 -85
236 -377 633 -715 1053 -895 80 -34 237 -91 277 -100 10 -2 62 -15 114 -29 91
-23 127 -30 215 -42 22 -3 67 -9 100 -14 102 -14 491 -5 591 15 16 3 45 8 64
11 129 21 436 110 467 136 7 6 13 8 13 5 0 -8 197 85 248 117 23 14 42 24 42
21 0 -3 6 -1 13 5 19 16 87 60 93 60 10 0 234 169 281 213 92 84 206 203 265
277 33 41 69 85 79 98 10 12 19 26 19 31 0 5 4 11 8 13 5 2 39 52 76 111 75
120 170 312 211 427 15 41 29 82 32 90 3 8 7 20 8 25 2 6 11 37 21 70 10 33
19 65 20 70 1 6 9 46 18 90 9 44 19 96 22 115 2 19 7 46 9 60 24 150 23 460
-1 625 -2 17 -6 44 -8 60 -11 80 -55 256 -96 386 -38 117 -121 299 -198 434
-29 50 -114 180 -122 185 -4 3 -9 10 -11 16 -5 13 -42 60 -129 161 -234 273
-564 511 -890 643 -30 12 -63 26 -72 31 -10 5 -22 9 -27 9 -5 0 -20 4 -33 9
-13 5 -26 9 -30 10 -4 1 -26 8 -49 16 -23 9 -51 17 -63 19 -12 2 -41 10 -66
17 -25 7 -49 13 -55 14 -11 1 -86 14 -120 21 -38 8 -90 15 -127 17 -21 1 -38
4 -38 7 0 6 -397 10 -402 4z m432 -227 c25 -3 59 -8 75 -12 17 -3 44 -8 60
-10 96 -15 306 -72 347 -95 10 -6 23 -10 28 -10 6 0 30 -9 52 -20 23 -11 48
-20 55 -20 7 0 13 -5 13 -12 0 -6 3 -9 6 -5 7 7 189 -86 215 -109 8 -8 19 -14
23 -14 7 0 154 -97 166 -110 3 -3 28 -23 55 -45 140 -112 301 -278 382 -395
17 -25 40 -56 52 -69 12 -13 21 -30 21 -38 0 -7 3 -13 8 -13 7 0 16 -15 75
-120 41 -74 100 -194 103 -210 0 -3 9 -23 19 -45 9 -22 18 -44 19 -50 1 -5 4
-14 7 -20 14 -23 76 -248 84 -305 2 -14 7 -41 11 -60 18 -92 28 -217 27 -370
0 -166 -7 -247 -34 -381 -12 -57 -22 -113 -24 -124 -2 -11 -4 -20 -5 -20 -1 0
-3 -7 -5 -15 -1 -8 -13 -49 -25 -90 -12 -41 -22 -77 -22 -80 0 -3 -6 -16 -13
-30 -7 -14 -32 -70 -56 -125 -64 -148 -219 -410 -251 -423 -4 -2 -8 -8 -8 -14
0 -6 -9 -20 -19 -32 -11 -11 -41 -46 -68 -76 -71 -80 -182 -190 -238 -235 -28
-22 -52 -42 -55 -46 -3 -3 -27 -21 -55 -40 -27 -18 -52 -36 -55 -39 -19 -19
-147 -97 -220 -133 -25 -12 -46 -25 -48 -29 -2 -5 -9 -8 -16 -8 -6 0 -29 -9
-51 -20 -22 -11 -45 -20 -52 -20 -7 0 -13 -4 -13 -10 0 -5 -6 -10 -14 -10 -8
0 -27 -5 -43 -11 -15 -6 -28 -10 -28 -9 0 1 -24 -8 -54 -20 -56 -22 -261 -73
-341 -85 -139 -21 -212 -27 -350 -27 -117 0 -153 2 -270 18 -25 3 -53 6 -62 6
-10 -1 -20 4 -23 9 -4 5 -11 7 -16 4 -24 -15 -354 82 -494 146 -27 12 -52 23
-55 24 -18 5 -87 42 -98 52 -6 6 -22 15 -35 19 -12 4 -24 9 -27 13 -8 10 -63
42 -82 48 -10 3 -18 9 -18 14 0 5 -7 9 -15 9 -8 0 -15 4 -15 8 0 4 -12 15 -27
24 -16 9 -38 25 -50 35 -12 10 -37 29 -55 43 -131 100 -298 275 -402 420 -25
36 -50 70 -54 75 -16 20 -108 182 -134 235 -50 103 -87 190 -81 190 3 0 1 6
-4 13 -9 12 -34 84 -67 197 -14 51 -36 155 -50 240 -26 163 -27 477 -1 640 24
144 82 361 126 465 7 17 13 32 14 35 25 81 187 374 244 442 6 7 40 49 75 93
224 280 523 504 862 645 53 22 106 42 118 44 11 2 39 11 61 19 22 8 54 19 70
23 17 4 32 8 35 9 16 4 69 16 90 20 14 3 48 9 75 15 28 5 77 12 109 15 33 3
61 7 64 9 5 6 397 -1 452 -7z"/>
<path d="M9460 7438 c-60 -6 -122 -14 -177 -23 -12 -2 -37 -8 -55 -14 -18 -6
-44 -12 -58 -15 -150 -26 -437 -171 -616 -311 -68 -53 -220 -211 -281 -292
-75 -99 -199 -310 -208 -353 -1 -3 -9 -22 -18 -44 -9 -21 -17 -44 -17 -51 0
-6 -3 -15 -7 -19 -4 -3 -8 -12 -10 -19 -1 -7 -10 -37 -18 -67 -9 -30 -18 -64
-21 -75 -2 -11 -6 -31 -9 -45 -3 -14 -8 -43 -11 -65 -3 -22 -10 -60 -14 -85
-9 -45 -5 -373 4 -420 3 -14 7 -38 9 -55 10 -65 47 -204 75 -280 40 -108 131
-297 153 -315 3 -3 12 -16 19 -30 54 -104 254 -319 398 -428 45 -34 84 -62 87
-62 2 0 24 -14 49 -30 91 -62 349 -172 456 -194 194 -42 237 -47 395 -49 142
-1 231 6 343 29 15 3 41 8 57 11 17 3 38 9 48 14 9 5 17 7 17 3 0 -3 7 -1 15
6 8 7 15 10 15 6 0 -8 169 53 197 71 12 8 23 14 25 12 7 -5 210 107 248 138 8
6 43 33 77 58 97 72 293 272 327 333 5 10 12 19 16 22 14 11 119 190 152 260
43 92 96 245 114 325 26 121 46 289 45 380 0 42 -11 202 -15 223 -3 15 -8 45
-11 67 -3 22 -17 85 -32 140 -87 334 -292 655 -548 860 -27 22 -52 43 -55 46
-37 43 -372 229 -412 229 -8 0 -18 4 -23 8 -16 14 -192 65 -265 76 -19 3 -45
8 -57 10 -86 18 -300 25 -403 14z m317 -222 c73 -8 79 -9 169 -31 86 -21 136
-37 148 -47 6 -4 17 -8 26 -8 23 0 260 -119 260 -131 0 -5 5 -9 11 -9 35 0
283 -219 349 -308 14 -19 35 -47 48 -62 12 -15 22 -33 22 -39 0 -6 4 -11 8
-11 5 0 19 -19 32 -42 46 -85 87 -165 98 -194 24 -61 51 -135 50 -137 0 -1 5
-22 12 -47 24 -88 40 -178 45 -256 17 -230 -5 -402 -82 -624 -22 -65 -124
-270 -134 -270 -5 0 -9 -5 -9 -12 0 -37 -210 -275 -310 -350 -30 -23 -57 -44
-60 -47 -9 -11 -69 -51 -76 -51 -3 0 -18 -8 -32 -19 -50 -35 -187 -99 -277
-129 -186 -62 -275 -76 -475 -76 -168 1 -257 13 -405 56 -83 24 -253 95 -277
116 -10 8 -18 12 -18 8 0 -4 -47 25 -105 64 -255 174 -442 407 -549 687 -20
51 -38 100 -40 110 -1 10 -5 25 -8 33 -7 19 -26 112 -34 165 -3 22 -7 51 -10
65 -2 14 -4 77 -4 140 0 106 3 140 15 225 3 17 5 37 6 45 2 30 30 137 56 210
29 84 110 258 129 278 7 6 16 21 19 32 3 11 11 20 16 20 5 0 9 5 9 11 0 20 94
134 185 224 154 153 345 272 550 343 70 24 134 42 171 47 21 3 73 11 114 18
80 13 255 14 357 3z"/>
<path d="M6447 8004 c-15 -8 -32 -27 -38 -42 -14 -37 -13 -949 1 -1022 25
-130 112 -249 223 -303 31 -15 62 -27 69 -27 11 0 13 -237 12 -1323 -1 -1091
2 -1327 13 -1349 15 -32 60 -58 89 -53 10 2 22 4 26 4 4 1 19 13 35 27 l28 25
0 1382 c1 935 -3 1388 -10 1402 -22 41 -46 55 -107 61 -83 7 -157 72 -184 159
-9 33 -13 160 -14 520 -1 516 -1 519 -55 543 -34 16 -54 15 -88 -4z"/>
<path d="M6755 8011 c-11 -5 -29 -18 -39 -30 -19 -21 -20 -41 -21 -494 -1
-260 3 -487 7 -505 12 -45 69 -74 115 -58 70 24 68 8 69 536 0 524 0 529 -59
550 -35 12 -45 12 -72 1z"/>
<path d="M7045 8008 c-52 -30 -50 -6 -53 -530 -3 -535 -4 -522 57 -551 52 -25
115 7 126 64 8 37 6 946 -2 966 -19 49 -86 75 -128 51z"/>
<path d="M12705 7957 c-78 -30 -170 -167 -265 -394 -22 -53 -40 -102 -40 -110
0 -7 -4 -13 -10 -13 -6 0 -9 -3 -8 -7 1 -5 -22 -80 -51 -168 -29 -87 -54 -164
-56 -170 -1 -5 -8 -30 -15 -55 -7 -25 -14 -49 -16 -55 -1 -5 -8 -30 -15 -55
-7 -25 -13 -48 -15 -52 -1 -5 -3 -11 -4 -15 -1 -5 -3 -12 -4 -18 -1 -5 -7 -28
-13 -50 -7 -22 -14 -51 -17 -65 -3 -14 -10 -50 -16 -80 -7 -30 -13 -66 -15
-80 -1 -14 -4 -27 -5 -30 -1 -3 -2 -8 -1 -12 0 -4 3 -30 5 -57 14 -163 129
-296 286 -329 106 -22 148 -13 179 38 22 37 17 81 -13 109 -23 22 -40 27 -109
36 -57 8 -94 30 -124 77 -23 34 -28 53 -30 114 -1 40 2 87 7 106 5 18 12 47
15 63 13 64 16 79 21 87 3 4 7 16 9 27 2 10 13 51 26 92 12 41 23 79 25 84 1
6 17 55 35 110 18 55 34 102 34 105 1 3 4 12 8 20 3 8 17 49 32 90 53 146 90
240 95 240 3 0 5 -814 5 -1810 l0 -1810 25 -24 c28 -27 73 -38 108 -25 l22 8
0 2035 c0 1368 -3 2037 -10 2041 -20 12 -55 13 -85 2z"/>
</g>
</svg>
