<svg data-v-fde0c5aa="" xmlns="http://www.w3.org/2000/svg" viewBox="0 0 300 300" class="iconLeft"><!----><defs data-v-fde0c5aa=""><!----></defs><rect data-v-fde0c5aa="" fill="#689D46" x="0" y="0" width="300px" height="300px" class="logo-background-square"></rect><defs data-v-fde0c5aa=""><!----></defs><g data-v-fde0c5aa="" id="cde68142-3314-41d4-8532-16b2269b4958" fill="#EBC416" transform="matrix(1.9237923622131348,0,0,1.9237923622131348,92.07396504847397,122.40184537011189)"><path d="M1.74 18.14L1.74 10.88L1.74 10.88Q1.74 10.75 1.16 10.60L1.16 10.60L1.16 10.60Q0.59 10.45 0.59 10.33L0.59 10.33L0.59 10.33Q0.59 9.71 2.00 9.71L2.00 9.71L2.60 9.72L2.60 9.72Q2.72 9.72 2.93 9.90L2.93 9.90L2.93 9.90Q3.13 10.08 3.24 10.27L3.24 10.27L6.84 16.75L6.84 16.75Q7.91 15.03 10.30 10.99L10.30 10.99L10.30 11.00L10.30 11.00Q10.34 10.94 10.46 10.69L10.46 10.69L10.46 10.69Q10.59 10.45 10.67 10.33L10.67 10.33L10.67 10.33Q10.75 10.21 10.88 10.04L10.88 10.04L10.88 10.04Q11.15 9.72 11.54 9.72L11.54 9.72L12.04 9.71L12.04 9.71Q13.29 9.71 13.29 10.33L13.29 10.33L13.29 10.33Q13.29 10.54 12.70 10.61L12.70 10.61L12.70 10.61Q12.11 10.67 12.11 10.88L12.11 10.88L12.11 18.14L12.11 18.14Q12.11 18.27 12.41 18.36L12.41 18.36L12.41 18.36Q12.70 18.44 13.00 18.52L13.00 18.52L13.00 18.52Q13.29 18.59 13.29 18.70L13.29 18.70L13.29 18.70Q13.29 19.33 11.94 19.33L11.94 19.33L11.40 19.31L10.83 19.33L10.83 19.33Q9.49 19.33 9.49 18.70L9.49 18.70L9.49 18.70Q9.49 18.55 9.78 18.49L9.78 18.49L9.78 18.49Q10.06 18.43 10.35 18.37L10.35 18.37L10.35 18.37Q10.63 18.31 10.63 18.14L10.63 18.14L10.63 12.04L10.63 12.04Q10.50 12.27 9.45 14.18L9.45 14.18L9.45 14.18Q7.69 17.38 7.05 18.13L7.05 18.13L7.05 18.12L7.05 18.12Q6.86 18.31 6.70 18.31L6.70 18.31L6.70 18.31Q6.54 18.31 6.43 18.28L6.43 18.28L6.43 18.28Q6.33 18.25 6.25 18.17L6.25 18.17L6.25 18.17Q6.17 18.09 6.13 18.04L6.13 18.04L6.13 18.04Q6.09 17.99 6.02 17.86L6.02 17.86L6.02 17.86Q5.95 17.73 5.93 17.68L5.93 17.68L2.94 12.78L2.94 18.14L2.94 18.14Q2.94 18.27 3.23 18.36L3.23 18.36L3.23 18.36Q3.53 18.44 3.82 18.52L3.82 18.52L3.82 18.52Q4.12 18.59 4.12 18.70L4.12 18.70L4.12 18.70Q4.12 19.32 2.85 19.32L2.85 19.32L2.35 19.31L1.83 19.33L1.83 19.33Q0.59 19.33 0.59 18.70L0.59 18.70L0.59 18.70Q0.59 18.54 0.88 18.48L0.88 18.48L0.88 18.48Q1.16 18.43 1.45 18.37L1.45 18.37L1.45 18.37Q1.74 18.31 1.74 18.14L1.74 18.14ZM15.05 18.57L15.05 18.57L15.05 18.57Q14.10 17.64 14.10 16.11L14.10 16.11L14.10 16.11Q14.10 14.57 15.06 13.61L15.06 13.61L15.06 13.61Q16.01 12.65 17.49 12.65L17.49 12.65L17.49 12.65Q18.66 12.65 19.46 13.40L19.46 13.40L19.46 13.40Q20.26 14.16 20.26 15.30L20.26 15.30L20.26 15.30Q20.26 15.85 19.39 15.85L19.39 15.85L15.43 15.85L15.43 15.85Q15.44 16.96 16.15 17.72L16.15 17.72L16.15 17.72Q16.85 18.48 17.92 18.48L17.92 18.48L17.92 18.48Q18.63 18.48 19.30 18.06L19.30 18.06L19.30 18.06Q19.66 17.84 19.76 17.84L19.76 17.84L19.76 17.84Q19.86 17.84 19.98 17.94L19.98 17.94L19.98 17.94Q20.11 18.04 20.11 18.18L20.11 18.18L20.11 18.18Q20.11 18.56 19.63 18.88L19.63 18.88L19.63 18.88Q19.15 19.20 18.57 19.35L18.57 19.35L18.57 19.35Q17.99 19.50 17.55 19.50L17.55 19.50L17.55 19.50Q16.00 19.50 15.05 18.57ZM19.00 15.13L19.00 15.13L19.00 15.13Q18.99 14.35 18.59 13.86L18.59 13.86L18.59 13.86Q18.20 13.36 17.44 13.36L17.44 13.36L17.44 13.36Q16.67 13.36 16.10 13.91L16.10 13.91L16.10 13.91Q15.53 14.46 15.50 15.16L15.50 15.16L17.10 15.16L17.10 15.16Q18.16 15.16 19.00 15.13ZM22.31 14.98L22.31 14.98L22.31 14.98Q22.05 14.98 21.73 14.78L21.73 14.78L21.73 14.78Q21.42 14.58 21.42 14.26L21.42 14.26L21.42 14.26Q21.42 13.93 21.60 13.64L21.60 13.64L21.60 13.64Q21.79 13.36 22.08 13.18L22.08 13.18L22.08 13.18Q22.37 13.00 22.76 12.87L22.76 12.87L22.76 12.87Q23.47 12.65 24.29 12.65L24.29 12.65L24.29 12.65Q25.68 12.65 26.30 13.26L26.30 13.26L26.30 13.26Q26.93 13.87 26.93 15.28L26.93 15.28L26.92 17.29L26.92 17.29Q26.92 18.03 27.10 18.21L27.10 18.21L27.10 18.21Q27.15 18.26 27.41 18.33L27.41 18.33L27.41 18.33Q28.10 18.55 28.10 18.67L28.10 18.67L28.10 18.67Q28.10 19.39 26.63 19.39L26.63 19.39L26.63 19.39Q26.08 19.39 25.91 19.14L25.91 19.14L25.91 19.14Q25.74 18.89 25.73 18.25L25.73 18.25L25.73 18.25Q25.42 18.80 24.79 19.14L24.79 19.14L24.79 19.14Q24.17 19.48 23.45 19.48L23.45 19.48L23.45 19.48Q22.73 19.48 22.23 19.30L22.23 19.30L22.23 19.30Q21.73 19.11 21.42 18.70L21.42 18.70L21.42 18.70Q21.11 18.29 21.11 17.81L21.11 17.81L21.11 17.81Q21.11 17.33 21.22 17.04L21.22 17.04L21.22 17.04Q21.33 16.75 21.49 16.55L21.49 16.55L21.49 16.55Q21.66 16.35 21.94 16.19L21.94 16.19L21.94 16.19Q22.22 16.04 22.47 15.94L22.47 15.94L22.47 15.94Q22.72 15.85 23.11 15.78L23.11 15.78L23.11 15.78Q23.68 15.67 24.07 15.62L24.07 15.62L24.07 15.62Q24.46 15.58 24.47 15.57L24.47 15.57L24.47 15.57Q24.51 15.57 24.94 15.52L24.94 15.52L24.94 15.52Q25.37 15.48 25.61 15.34L25.61 15.34L25.61 15.34Q25.61 14.04 25.27 13.64L25.27 13.64L25.27 13.64Q24.96 13.30 24.25 13.30L24.25 13.30L24.25 13.30Q23.55 13.30 23.20 13.66L23.20 13.66L23.20 13.66Q22.85 14.02 22.85 14.80L22.85 14.80L22.85 14.95L22.85 14.95Q22.57 14.98 22.31 14.98ZM25.61 15.96L25.61 15.96L25.61 15.96Q25.15 16.13 24.56 16.19L24.56 16.19L24.56 16.19Q23.98 16.26 23.65 16.34L23.65 16.34L23.65 16.34Q23.31 16.43 23.08 16.56L23.08 16.56L23.08 16.56Q22.57 16.86 22.57 17.60L22.57 17.60L22.57 17.60Q22.57 18.77 23.93 18.77L23.93 18.77L23.93 18.77Q25.12 18.77 25.43 17.64L25.43 17.64L25.43 17.64Q25.61 17.00 25.61 15.96ZM30.78 19.32L30.78 19.32L30.19 19.33L30.19 19.33Q29.30 19.33 29.09 19.05L29.09 19.05L29.09 19.05Q28.99 18.93 28.99 18.75L28.99 18.75L28.99 18.75Q28.99 18.58 29.13 18.51L29.13 18.51L29.13 18.51Q29.26 18.44 29.43 18.44L29.43 18.44L29.43 18.44Q29.59 18.43 29.73 18.33L29.73 18.33L29.73 18.33Q29.87 18.23 29.87 18.01L29.87 18.01L29.87 10.79L29.87 10.79Q29.87 10.17 29.37 10.12L29.37 10.12L29.37 10.12Q29.33 10.12 29.25 10.11L29.25 10.11L29.25 10.11Q29.18 10.10 29.14 10.10L29.14 10.10L29.14 10.10Q29.11 10.10 29.06 10.09L29.06 10.09L29.06 10.09Q29.00 10.08 28.98 10.06L28.98 10.06L28.98 10.06Q28.96 10.05 28.94 10.03L28.94 10.03L28.94 10.03Q28.89 9.99 28.89 9.83L28.89 9.83L28.89 9.83Q28.89 9.67 29.10 9.50L29.10 9.50L29.10 9.50Q29.48 9.19 30.13 9.19L30.13 9.19L30.13 9.19Q30.82 9.19 30.94 9.27L30.94 9.27L30.94 9.27Q31.17 9.43 31.17 9.70L31.17 9.70L31.17 18.01L31.17 18.01Q31.17 18.41 31.61 18.43L31.61 18.43L31.61 18.43Q32.05 18.46 32.05 18.79L32.05 18.79L32.05 18.79Q32.05 19.16 31.64 19.25L31.64 19.25L31.64 19.25Q31.33 19.32 30.78 19.32ZM36.52 10.65L36.52 10.65L36.52 10.65Q36.24 10.58 35.95 10.52L35.95 10.52L35.95 10.52Q35.66 10.47 35.66 10.33L35.66 10.33L35.66 10.33Q35.66 10.19 35.76 10.08L35.76 10.08L35.76 10.08Q35.85 9.97 36.03 9.91L36.03 9.91L36.03 9.91Q36.22 9.84 36.40 9.80L36.40 9.80L36.40 9.80Q36.59 9.76 36.88 9.75L36.88 9.75L36.88 9.75Q37.28 9.72 37.86 9.72L37.86 9.72L39.05 9.72L39.05 9.72Q41.28 9.72 42.32 9.97L42.32 9.97L42.32 9.97Q43.42 10.21 43.91 10.69L43.91 10.69L43.91 10.69Q44.53 11.28 44.53 12.21L44.53 12.21L44.53 12.21Q44.53 13.58 43.70 14.26L43.70 14.26L43.70 14.26Q43.13 14.72 42.56 14.88L42.56 14.88L42.56 14.88Q41.99 15.03 41.61 15.10L41.61 15.10L41.61 15.10Q41.23 15.16 40.71 15.20L40.71 15.20L40.71 15.20Q39.92 15.26 38.78 15.26L38.78 15.26L38.35 15.26L38.35 18.14L38.35 18.14Q38.35 18.27 38.63 18.36L38.63 18.36L38.63 18.36Q38.92 18.44 39.20 18.52L39.20 18.52L39.20 18.52Q39.48 18.60 39.48 18.70L39.48 18.70L39.48 18.70Q39.48 18.93 39.38 19.06L39.38 19.06L39.38 19.06Q39.27 19.20 38.97 19.25L38.97 19.25L38.97 19.25Q38.61 19.31 37.59 19.31L37.59 19.31L37.59 19.31Q36.58 19.31 36.36 19.28L36.36 19.28L36.36 19.28Q35.67 19.20 35.66 18.77L35.66 18.77L35.66 18.77Q35.66 18.46 36.23 18.44L36.23 18.44L36.23 18.44Q36.80 18.42 36.80 18.14L36.80 18.14L36.80 10.88L36.80 10.88Q36.80 10.72 36.52 10.65ZM42.98 12.63L42.98 12.63L42.98 12.63Q42.98 10.53 39.77 10.53L39.77 10.53L39.48 10.53L39.48 10.53Q38.84 10.53 38.67 10.66L38.67 10.66L38.67 10.66Q38.49 10.79 38.46 10.86L38.46 10.86L38.46 10.86Q38.43 10.94 38.40 11.03L38.40 11.03L38.40 11.03Q38.35 11.18 38.35 11.50L38.35 11.50L38.35 14.44L38.35 14.44Q38.60 14.46 39.17 14.46L39.17 14.46L39.17 14.46Q39.74 14.46 40.20 14.43L40.20 14.43L40.20 14.43Q40.66 14.40 41.11 14.33L41.11 14.33L41.11 14.33Q41.56 14.25 41.88 14.12L41.88 14.12L41.88 14.12Q42.21 13.98 42.47 13.78L42.47 13.78L42.47 13.78Q42.98 13.38 42.98 12.63ZM47.12 19.32L47.12 19.32L46.53 19.33L46.53 19.33Q45.64 19.33 45.42 19.05L45.42 19.05L45.42 19.05Q45.33 18.93 45.33 18.75L45.33 18.75L45.33 18.75Q45.33 18.58 45.47 18.51L45.47 18.51L45.47 18.51Q45.60 18.44 45.77 18.44L45.77 18.44L45.77 18.44Q45.93 18.43 46.07 18.33L46.07 18.33L46.07 18.33Q46.20 18.23 46.20 18.01L46.20 18.01L46.20 10.79L46.20 10.79Q46.20 10.17 45.71 10.12L45.71 10.12L45.71 10.12Q45.66 10.12 45.59 10.11L45.59 10.11L45.59 10.11Q45.51 10.10 45.48 10.10L45.48 10.10L45.48 10.10Q45.45 10.10 45.39 10.09L45.39 10.09L45.39 10.09Q45.34 10.08 45.32 10.06L45.32 10.06L45.32 10.06Q45.29 10.05 45.27 10.03L45.27 10.03L45.27 10.03Q45.23 9.99 45.23 9.83L45.23 9.83L45.23 9.83Q45.23 9.67 45.44 9.50L45.44 9.50L45.44 9.50Q45.82 9.19 46.47 9.19L46.47 9.19L46.47 9.19Q47.16 9.19 47.28 9.27L47.28 9.27L47.28 9.27Q47.51 9.43 47.51 9.70L47.51 9.70L47.51 18.01L47.51 18.01Q47.51 18.41 47.95 18.43L47.95 18.43L47.95 18.43Q48.39 18.46 48.39 18.79L48.39 18.79L48.39 18.79Q48.39 19.16 47.98 19.25L47.98 19.25L47.98 19.25Q47.67 19.32 47.12 19.32ZM50.51 14.98L50.51 14.98L50.51 14.98Q50.25 14.98 49.93 14.78L49.93 14.78L49.93 14.78Q49.62 14.58 49.62 14.26L49.62 14.26L49.62 14.26Q49.62 13.93 49.80 13.64L49.80 13.64L49.80 13.64Q49.98 13.36 50.28 13.18L50.28 13.18L50.28 13.18Q50.57 13.00 50.96 12.87L50.96 12.87L50.96 12.87Q51.67 12.65 52.49 12.65L52.49 12.65L52.49 12.65Q53.87 12.65 54.50 13.26L54.50 13.26L54.50 13.26Q55.13 13.87 55.13 15.28L55.13 15.28L55.12 17.29L55.12 17.29Q55.12 18.03 55.30 18.21L55.30 18.21L55.30 18.21Q55.35 18.26 55.60 18.33L55.60 18.33L55.60 18.33Q56.30 18.55 56.30 18.67L56.30 18.67L56.30 18.67Q56.30 19.39 54.83 19.39L54.83 19.39L54.83 19.39Q54.28 19.39 54.11 19.14L54.11 19.14L54.11 19.14Q53.94 18.89 53.93 18.25L53.93 18.25L53.93 18.25Q53.62 18.80 52.99 19.14L52.99 19.14L52.99 19.14Q52.36 19.48 51.65 19.48L51.65 19.48L51.65 19.48Q50.93 19.48 50.43 19.30L50.43 19.30L50.43 19.30Q49.93 19.11 49.62 18.70L49.62 18.70L49.62 18.70Q49.31 18.29 49.31 17.81L49.31 17.81L49.31 17.81Q49.31 17.33 49.42 17.04L49.42 17.04L49.42 17.04Q49.53 16.75 49.69 16.55L49.69 16.55L49.69 16.55Q49.85 16.35 50.14 16.19L50.14 16.19L50.14 16.19Q50.42 16.04 50.67 15.94L50.67 15.94L50.67 15.94Q50.91 15.85 51.30 15.78L51.30 15.78L51.30 15.78Q51.88 15.67 52.27 15.62L52.27 15.62L52.27 15.62Q52.66 15.58 52.67 15.57L52.67 15.57L52.67 15.57Q52.71 15.57 53.14 15.52L53.14 15.52L53.14 15.52Q53.57 15.48 53.81 15.34L53.81 15.34L53.81 15.34Q53.81 14.04 53.46 13.64L53.46 13.64L53.46 13.64Q53.16 13.30 52.45 13.30L52.45 13.30L52.45 13.30Q51.75 13.30 51.40 13.66L51.40 13.66L51.40 13.66Q51.04 14.02 51.04 14.80L51.04 14.80L51.05 14.95L51.05 14.95Q50.76 14.98 50.51 14.98ZM53.81 15.96L53.81 15.96L53.81 15.96Q53.35 16.13 52.76 16.19L52.76 16.19L52.76 16.19Q52.18 16.26 51.84 16.34L51.84 16.34L51.84 16.34Q51.51 16.43 51.28 16.56L51.28 16.56L51.28 16.56Q50.76 16.86 50.76 17.60L50.76 17.60L50.76 17.60Q50.76 18.77 52.13 18.77L52.13 18.77L52.13 18.77Q53.31 18.77 53.63 17.64L53.63 17.64L53.63 17.64Q53.81 17.00 53.81 15.96ZM58.97 19.32L58.97 19.32L58.39 19.33L58.39 19.33Q57.49 19.33 57.28 19.05L57.28 19.05L57.28 19.05Q57.18 18.93 57.18 18.75L57.18 18.75L57.18 18.75Q57.18 18.58 57.32 18.51L57.32 18.51L57.32 18.51Q57.46 18.44 57.62 18.44L57.62 18.44L57.62 18.44Q57.79 18.43 57.93 18.33L57.93 18.33L57.93 18.33Q58.06 18.23 58.06 18.01L58.06 18.01L58.06 14.11L58.06 14.11Q58.06 13.71 57.57 13.63L57.57 13.63L57.57 13.63Q57.23 13.58 57.16 13.51L57.16 13.51L57.16 13.51Q57.09 13.45 57.09 13.28L57.09 13.28L57.09 13.28Q57.09 13.11 57.33 12.97L57.33 12.97L57.33 12.97Q57.73 12.73 58.34 12.73L58.34 12.73L58.34 12.73Q58.95 12.73 59.13 12.90L59.13 12.90L59.13 12.90Q59.30 13.08 59.30 13.68L59.30 13.68L59.30 13.68Q60.24 12.62 61.88 12.62L61.88 12.62L61.88 12.62Q63.21 12.62 63.77 13.35L63.77 13.35L63.77 13.35Q64.33 14.08 64.33 15.55L64.33 15.55L64.33 18.01L64.33 18.01Q64.33 18.41 64.77 18.43L64.77 18.43L64.77 18.43Q65.21 18.46 65.21 18.79L65.21 18.79L65.21 18.79Q65.21 19.15 64.78 19.25L64.78 19.25L64.78 19.25Q64.47 19.32 63.92 19.32L63.92 19.32L63.33 19.33L63.33 19.33Q62.43 19.33 62.22 19.05L62.22 19.05L62.22 19.05Q62.13 18.93 62.13 18.75L62.13 18.75L62.13 18.75Q62.13 18.58 62.26 18.51L62.26 18.51L62.26 18.51Q62.40 18.44 62.57 18.44L62.57 18.44L62.57 18.44Q62.73 18.43 62.87 18.33L62.87 18.33L62.87 18.33Q63.01 18.23 63.01 18.01L63.01 18.01L63.01 16.02L63.01 16.02Q63.01 14.75 62.71 14.16L62.71 14.16L62.71 14.16Q62.38 13.50 61.39 13.50L61.39 13.50L61.39 13.50Q60.20 13.50 59.77 14.14L59.77 14.14L59.77 14.14Q59.36 14.74 59.36 16.06L59.36 16.06L59.36 18.01L59.36 18.01Q59.36 18.41 59.80 18.43L59.80 18.43L59.80 18.43Q60.25 18.46 60.25 18.79L60.25 18.79L60.25 18.79Q60.25 19.16 59.83 19.25L59.83 19.25L59.83 19.25Q59.53 19.32 58.97 19.32ZM67.97 19.32L67.97 19.32L67.38 19.33L67.38 19.33Q66.49 19.33 66.27 19.05L66.27 19.05L66.27 19.05Q66.18 18.93 66.18 18.75L66.18 18.75L66.18 18.75Q66.18 18.58 66.32 18.51L66.32 18.51L66.32 18.51Q66.45 18.44 66.62 18.44L66.62 18.44L66.62 18.44Q66.79 18.43 66.92 18.33L66.92 18.33L66.92 18.33Q67.06 18.23 67.06 18.01L67.06 18.01L67.06 14.11L67.06 14.11Q67.06 13.71 66.57 13.63L66.57 13.63L66.57 13.63Q66.23 13.58 66.15 13.51L66.15 13.51L66.15 13.51Q66.08 13.45 66.08 13.28L66.08 13.28L66.08 13.28Q66.08 13.11 66.32 12.97L66.32 12.97L66.32 12.97Q66.73 12.73 67.34 12.73L67.34 12.73L67.34 12.73Q67.95 12.73 68.12 12.90L68.12 12.90L68.12 12.90Q68.30 13.08 68.30 13.68L68.30 13.68L68.30 13.68Q69.23 12.62 70.88 12.62L70.88 12.62L70.88 12.62Q72.21 12.62 72.77 13.35L72.77 13.35L72.77 13.35Q73.32 14.08 73.32 15.55L73.32 15.55L73.32 18.01L73.32 18.01Q73.32 18.41 73.76 18.43L73.76 18.43L73.76 18.43Q74.20 18.46 74.20 18.79L74.20 18.79L74.20 18.79Q74.20 19.15 73.78 19.25L73.78 19.25L73.78 19.25Q73.47 19.32 72.91 19.32L72.91 19.32L72.32 19.33L72.32 19.33Q71.43 19.33 71.22 19.05L71.22 19.05L71.22 19.05Q71.12 18.93 71.12 18.75L71.12 18.75L71.12 18.75Q71.12 18.58 71.26 18.51L71.26 18.51L71.26 18.51Q71.39 18.44 71.56 18.44L71.56 18.44L71.56 18.44Q71.73 18.43 71.87 18.33L71.87 18.33L71.87 18.33Q72.00 18.23 72.00 18.01L72.00 18.01L72.00 16.02L72.00 16.02Q72.00 14.75 71.71 14.16L71.71 14.16L71.71 14.16Q71.38 13.50 70.39 13.50L70.39 13.50L70.39 13.50Q69.19 13.50 68.76 14.14L68.76 14.14L68.76 14.14Q68.36 14.74 68.36 16.06L68.36 16.06L68.36 18.01L68.36 18.01Q68.36 18.41 68.80 18.43L68.80 18.43L68.80 18.43Q69.24 18.46 69.24 18.79L69.24 18.79L69.24 18.79Q69.24 19.16 68.82 19.25L68.82 19.25L68.82 19.25Q68.52 19.32 67.97 19.32ZM75.77 18.57L75.77 18.57L75.77 18.57Q74.83 17.64 74.83 16.11L74.83 16.11L74.83 16.11Q74.83 14.57 75.78 13.61L75.78 13.61L75.78 13.61Q76.73 12.65 78.21 12.65L78.21 12.65L78.21 12.65Q79.38 12.65 80.18 13.40L80.18 13.40L80.18 13.40Q80.99 14.16 80.99 15.30L80.99 15.30L80.99 15.30Q80.99 15.85 80.11 15.85L80.11 15.85L76.15 15.85L76.15 15.85Q76.17 16.96 76.87 17.72L76.87 17.72L76.87 17.72Q77.57 18.48 78.65 18.48L78.65 18.48L78.65 18.48Q79.36 18.48 80.03 18.06L80.03 18.06L80.03 18.06Q80.38 17.84 80.48 17.84L80.48 17.84L80.48 17.84Q80.58 17.84 80.71 17.94L80.71 17.94L80.71 17.94Q80.83 18.04 80.83 18.18L80.83 18.18L80.83 18.18Q80.83 18.56 80.35 18.88L80.35 18.88L80.35 18.88Q79.87 19.20 79.29 19.35L79.29 19.35L79.29 19.35Q78.71 19.50 78.27 19.50L78.27 19.50L78.27 19.50Q76.72 19.50 75.77 18.57ZM79.73 15.13L79.73 15.13L79.73 15.13Q79.71 14.35 79.32 13.86L79.32 13.86L79.32 13.86Q78.92 13.36 78.16 13.36L78.16 13.36L78.16 13.36Q77.40 13.36 76.83 13.91L76.83 13.91L76.83 13.91Q76.25 14.46 76.22 15.16L76.22 15.16L77.82 15.16L77.82 15.16Q78.89 15.16 79.73 15.13ZM83.79 19.32L83.79 19.32L83.20 19.33L83.20 19.33Q82.30 19.33 82.09 19.05L82.09 19.05L82.09 19.05Q82.00 18.93 82.00 18.75L82.00 18.75L82.00 18.75Q82.00 18.58 82.13 18.51L82.13 18.51L82.13 18.51Q82.27 18.44 82.44 18.44L82.44 18.44L82.44 18.44Q82.61 18.43 82.74 18.33L82.74 18.33L82.74 18.33Q82.88 18.23 82.88 18.01L82.88 18.01L82.88 14.64L82.88 14.64Q82.88 14.03 82.73 13.88L82.73 13.88L82.73 13.88Q82.58 13.74 82.49 13.70L82.49 13.70L82.49 13.70Q82.39 13.66 82.17 13.60L82.17 13.60L82.17 13.60Q81.96 13.54 81.83 13.47L81.83 13.47L81.83 13.47Q81.70 13.41 81.70 13.29L81.70 13.29L81.70 13.29Q81.70 12.74 83.17 12.74L83.17 12.74L83.17 12.74Q83.79 12.74 83.96 12.96L83.96 12.96L83.96 12.96Q84.12 13.17 84.12 13.95L84.12 13.95L84.12 13.95Q84.36 13.36 84.89 13.03L84.89 13.03L84.89 13.03Q85.43 12.69 85.99 12.69L85.99 12.69L85.99 12.69Q86.56 12.69 86.92 12.94L86.92 12.94L86.92 12.94Q87.29 13.18 87.29 13.55L87.29 13.55L87.29 13.55Q87.29 13.92 87.05 14.15L87.05 14.15L87.05 14.15Q86.81 14.37 86.46 14.37L86.46 14.37L86.46 14.37Q86.11 14.37 85.86 14.18L85.86 14.18L85.86 14.18Q85.61 14 85.54 13.71L85.54 13.71L85.54 13.71Q85.36 13.68 85.24 13.68L85.24 13.68L85.24 13.68Q84.18 13.68 84.18 16.13L84.18 16.13L84.18 18.01L84.18 18.01Q84.18 18.41 84.62 18.43L84.62 18.43L84.62 18.43Q85.06 18.46 85.06 18.79L85.06 18.79L85.06 18.79Q85.06 19.16 84.65 19.25L84.65 19.25L84.65 19.25Q84.33 19.32 83.79 19.32Z"></path></g><defs data-v-fde0c5aa=""><!----></defs><g data-v-fde0c5aa="" id="28d4870f-927f-4ebc-b0cd-09f4c61bec6c" stroke="none" fill="#EBC416" transform="matrix(0.47232726216316223,0,0,0.47232726216316223,36.55902220086762,121.05611837861166)"><path d="M8.534 46.081c-.69 0-1.25-.56-1.25-1.25V32.765a1.25 1.25 0 0 1 2.5 0v12.066c0 .69-.56 1.25-1.25 1.25zM12.702 86.225c-.69 0-1.25-.56-1.25-1.25V49.479a1.25 1.25 0 0 1 2.5 0v35.495a1.25 1.25 0 0 1-1.25 1.251z"></path><path d="M12.687 50.358c-2.942 0-5.336-2.449-5.336-5.46a1.25 1.25 0 0 1 2.5 0c0 1.632 1.272 2.96 2.836 2.96a1.25 1.25 0 0 1 0 2.5zM12.459 46.081c-.69 0-1.25-.56-1.25-1.25V32.765a1.25 1.25 0 0 1 2.5 0v12.066c0 .69-.56 1.25-1.25 1.25zM16.358 46.081c-.69 0-1.25-.56-1.25-1.25V32.765a1.25 1.25 0 0 1 2.5 0v12.066c0 .69-.56 1.25-1.25 1.25zM91.164 86.49c-.69 0-1.25-.56-1.25-1.25 0-.425.003-35.414.001-47.628-1.841 4.31-4.183 11.774-4.183 13.62 0 2.496 1.853 2.766 2.649 2.766a1.25 1.25 0 0 1 0 2.5c-3.08 0-5.149-2.116-5.149-5.266 0-1.606 4.413-19.029 7.932-19.029.081 0 .162.008.241.023 1.009.198 1.009.32 1.01 3.452v5.866l-.001 43.696c0 .691-.56 1.25-1.25 1.25z"></path><g><path d="M49.69 92.77c-17.364 0-31.49-14.127-31.49-31.49s14.126-31.49 31.49-31.49 31.49 14.127 31.49 31.49-14.126 31.49-31.49 31.49zm0-60.104c-15.778 0-28.614 12.836-28.614 28.613S33.912 89.893 49.69 89.893 78.304 77.057 78.304 61.28 65.468 32.666 49.69 32.666z"></path></g><g><path d="M49.69 83.443c-12.221 0-22.164-9.943-22.164-22.164s9.942-22.164 22.164-22.164 22.164 9.943 22.164 22.164-9.943 22.164-22.164 22.164zm0-41.451c-10.635 0-19.288 8.652-19.288 19.287s8.652 19.287 19.288 19.287 19.288-8.652 19.288-19.287-8.653-19.287-19.288-19.287z"></path></g></g><!----></svg>